<?xml version="1.0" encoding="UTF-8" standalone="no"?>
<svg
   class="h-5 w-5"
   viewBox="0 0 20 20"
   fill="currentColor"
   version="1.1"
   id="svg854"
   sodipodi:docname="siteadmin.svg"
   inkscape:version="1.1.2 (b8e25be8, 2022-02-05)"
   xmlns:inkscape="http://www.inkscape.org/namespaces/inkscape"
   xmlns:sodipodi="http://sodipodi.sourceforge.net/DTD/sodipodi-0.dtd"
   xmlns="http://www.w3.org/2000/svg"
   xmlns:svg="http://www.w3.org/2000/svg">
  <defs
     id="defs858" />
  <sodipodi:namedview
     id="namedview856"
     pagecolor="#ffffff"
     bordercolor="#666666"
     borderopacity="1.0"
     inkscape:pageshadow="2"
     inkscape:pageopacity="0.0"
     inkscape:pagecheckerboard="0"
     showgrid="false"
     inkscape:zoom="41.45"
     inkscape:cx="10"
     inkscape:cy="10"
     inkscape:window-width="1800"
     inkscape:window-height="1097"
     inkscape:window-x="0"
     inkscape:window-y="44"
     inkscape:window-maximized="1"
     inkscape:current-layer="svg854" />
  <path
     fill-rule="evenodd"
     d="M9 3a1 1 0 012 0v5.5a.5.5 0 001 0V4a1 1 0 112 0v4.5a.5.5 0 001 0V6a1 1 0 112 0v5a7 7 0 11-14 0V9a1 1 0 012 0v2.5a.5.5 0 001 0V4a1 1 0 012 0v4.5a.5.5 0 001 0V3z"
     clip-rule="evenodd"
     id="path852"
     style="fill:#bb23e5;fill-opacity:1" />
</svg>
