<?xml version="1.0" encoding="UTF-8" standalone="no"?>
<!-- Created with Inkscape (http://www.inkscape.org/) -->

<svg
   width="675"
   height="675"
   id="svg2"
   sodipodi:version="0.32"
   inkscape:version="1.1.1 (3bf5ae0d25, 2021-09-20)"
   version="1.0"
   sodipodi:docname="azores.svg"
   inkscape:output_extension="org.inkscape.output.svg.inkscape"
   inkscape:export-filename="/home/ginger/art/link/2030/map.png"
   inkscape:export-xdpi="200"
   inkscape:export-ydpi="200"
   xmlns:inkscape="http://www.inkscape.org/namespaces/inkscape"
   xmlns:sodipodi="http://sodipodi.sourceforge.net/DTD/sodipodi-0.dtd"
   xmlns="http://www.w3.org/2000/svg"
   xmlns:svg="http://www.w3.org/2000/svg"
   xmlns:rdf="http://www.w3.org/1999/02/22-rdf-syntax-ns#"
   xmlns:cc="http://creativecommons.org/ns#"
   xmlns:dc="http://purl.org/dc/elements/1.1/">
  <defs
     id="defs4">
    <marker
       inkscape:stockid="Arrow1Lend"
       orient="auto"
       refY="0"
       refX="0"
       id="Arrow1Lend"
       style="overflow:visible">
      <path
         id="path4067"
         d="M 0,0 5,-5 -12.5,0 5,5 Z"
         style="fill-rule:evenodd;stroke:#000000;stroke-width:1pt;marker-start:none"
         transform="matrix(-0.8,0,0,-0.8,-10,0)" />
    </marker>
    <inkscape:perspective
       sodipodi:type="inkscape:persp3d"
       inkscape:vp_x="0 : 525.40466 : 1"
       inkscape:vp_y="0 : 1000 : 0"
       inkscape:vp_z="744.09448 : 525.40466 : 1"
       inkscape:persp3d-origin="372.04724 : 350.01096 : 1"
       id="perspective10" />
    <inkscape:perspective
       id="perspective2464"
       inkscape:persp3d-origin="372.04724 : 350.01096 : 1"
       inkscape:vp_z="744.09448 : 525.40466 : 1"
       inkscape:vp_y="0 : 1000 : 0"
       inkscape:vp_x="0 : 525.40466 : 1"
       sodipodi:type="inkscape:persp3d" />
    <clipPath
       id="clipPath2594"
       clipPathUnits="userSpaceOnUse">
      <path
         id="path2596"
         d="M 257.582,758.02 H 2310.24 V 2810.68 H 257.582 Z" />
    </clipPath>
    <clipPath
       id="clipPath2582"
       clipPathUnits="userSpaceOnUse">
      <path
         id="path2584"
         d="M 225,317.922 H 2325 V 3075 H 225 Z" />
    </clipPath>
    <clipPath
       id="clipPath2568"
       clipPathUnits="userSpaceOnUse">
      <path
         id="path2570"
         d="m 1605.66,2892.74 h 592.39 v 173.1 h -592.39 z" />
    </clipPath>
    <clipPath
       id="clipPath2548"
       clipPathUnits="userSpaceOnUse">
      <path
         id="path2550"
         d="M 225,317.922 H 2325 V 3075 H 225 Z" />
    </clipPath>
    <clipPath
       id="clipPath2534"
       clipPathUnits="userSpaceOnUse">
      <path
         id="path2536"
         d="M 257.992,2897.84 H 716.18 v 168 H 257.992 Z" />
    </clipPath>
    <clipPath
       id="clipPath2524"
       clipPathUnits="userSpaceOnUse">
      <path
         id="path2526"
         d="M 225,317.922 H 2325 V 3075 H 225 Z" />
    </clipPath>
    <inkscape:perspective
       id="perspective2514"
       inkscape:persp3d-origin="372.04724 : 350.01096 : 1"
       inkscape:vp_z="744.09448 : 525.40466 : 1"
       inkscape:vp_y="0 : 1000 : 0"
       inkscape:vp_x="0 : 525.40466 : 1"
       sodipodi:type="inkscape:persp3d" />
    <clipPath
       id="clipPath3534"
       clipPathUnits="userSpaceOnUse">
      <path
         id="path3536"
         d="M 257.582,758.02 H 2310.24 V 2810.68 H 257.582 Z" />
    </clipPath>
    <clipPath
       id="clipPath3522"
       clipPathUnits="userSpaceOnUse">
      <path
         id="path3524"
         d="M 225,317.922 H 2325 V 3075 H 225 Z" />
    </clipPath>
    <clipPath
       id="clipPath3508"
       clipPathUnits="userSpaceOnUse">
      <path
         id="path3510"
         d="m 1605.66,2892.74 h 592.39 v 173.1 h -592.39 z" />
    </clipPath>
    <clipPath
       id="clipPath3488"
       clipPathUnits="userSpaceOnUse">
      <path
         id="path3490"
         d="M 225,317.922 H 2325 V 3075 H 225 Z" />
    </clipPath>
    <clipPath
       id="clipPath3474"
       clipPathUnits="userSpaceOnUse">
      <path
         id="path3476"
         d="M 257.992,2897.84 H 716.18 v 168 H 257.992 Z" />
    </clipPath>
    <clipPath
       id="clipPath3464"
       clipPathUnits="userSpaceOnUse">
      <path
         id="path3466"
         d="M 225,317.922 H 2325 V 3075 H 225 Z" />
    </clipPath>
    <inkscape:perspective
       id="perspective3454"
       inkscape:persp3d-origin="372.04724 : 350.01096 : 1"
       inkscape:vp_z="744.09448 : 525.40466 : 1"
       inkscape:vp_y="0 : 1000 : 0"
       inkscape:vp_x="0 : 525.40466 : 1"
       sodipodi:type="inkscape:persp3d" />
    <clipPath
       id="clipPath3958"
       clipPathUnits="userSpaceOnUse">
      <path
         id="path3960"
         d="M 257.582,758.02 H 2310.24 V 2810.68 H 257.582 Z" />
    </clipPath>
    <clipPath
       id="clipPath3946"
       clipPathUnits="userSpaceOnUse">
      <path
         id="path3948"
         d="M 225,317.922 H 2325 V 3075 H 225 Z" />
    </clipPath>
    <clipPath
       id="clipPath3932"
       clipPathUnits="userSpaceOnUse">
      <path
         id="path3934"
         d="m 1605.66,2892.74 h 592.39 v 173.1 h -592.39 z" />
    </clipPath>
    <clipPath
       id="clipPath3912"
       clipPathUnits="userSpaceOnUse">
      <path
         id="path3914"
         d="M 225,317.922 H 2325 V 3075 H 225 Z" />
    </clipPath>
    <clipPath
       id="clipPath3898"
       clipPathUnits="userSpaceOnUse">
      <path
         id="path3900"
         d="M 257.992,2897.84 H 716.18 v 168 H 257.992 Z" />
    </clipPath>
    <clipPath
       id="clipPath3888"
       clipPathUnits="userSpaceOnUse">
      <path
         id="path3890"
         d="M 225,317.922 H 2325 V 3075 H 225 Z" />
    </clipPath>
    <inkscape:perspective
       id="perspective3878"
       inkscape:persp3d-origin="372.04724 : 350.01096 : 1"
       inkscape:vp_z="744.09448 : 525.40466 : 1"
       inkscape:vp_y="0 : 1000 : 0"
       inkscape:vp_x="0 : 525.40466 : 1"
       sodipodi:type="inkscape:persp3d" />
    <inkscape:perspective
       id="perspective4930"
       inkscape:persp3d-origin="372.04724 : 350.01096 : 1"
       inkscape:vp_z="744.09448 : 525.40466 : 1"
       inkscape:vp_y="0 : 1000 : 0"
       inkscape:vp_x="0 : 525.40466 : 1"
       sodipodi:type="inkscape:persp3d" />
    <inkscape:perspective
       id="perspective6046"
       inkscape:persp3d-origin="372.04724 : 350.01096 : 1"
       inkscape:vp_z="744.09448 : 525.40466 : 1"
       inkscape:vp_y="0 : 1000 : 0"
       inkscape:vp_x="0 : 525.40466 : 1"
       sodipodi:type="inkscape:persp3d" />
  </defs>
  <sodipodi:namedview
     id="base"
     pagecolor="#ffffff"
     bordercolor="#666666"
     borderopacity="1.0"
     gridtolerance="10000"
     guidetolerance="10"
     objecttolerance="10"
     inkscape:pageopacity="0.0"
     inkscape:pageshadow="2"
     inkscape:zoom="0.34604055"
     inkscape:cx="875.61992"
     inkscape:cy="390.12769"
     inkscape:document-units="px"
     inkscape:current-layer="layer1"
     showgrid="false"
     showguides="true"
     inkscape:guide-bbox="true"
     units="in"
     inkscape:window-width="1920"
     inkscape:window-height="1011"
     inkscape:window-x="0"
     inkscape:window-y="0"
     inkscape:pagecheckerboard="0"
     inkscape:window-maximized="1"
     inkscape:lockguides="false">
    <sodipodi:guide
       orientation="1,0"
       position="99.699297,770.14095"
       id="guide3803"
       inkscape:locked="false" />
    <sodipodi:guide
       orientation="1,0"
       position="199.39859,738.35277"
       id="guide3805"
       inkscape:locked="false" />
    <sodipodi:guide
       orientation="1,0"
       position="301.98773,754.24686"
       id="guide3807"
       inkscape:locked="false" />
    <sodipodi:guide
       orientation="1,0"
       position="401.68702,754.24686"
       id="guide3809"
       inkscape:locked="false" />
    <sodipodi:guide
       orientation="1,0"
       position="501.38632,716.67901"
       id="guide3811"
       inkscape:locked="false" />
    <sodipodi:guide
       orientation="1,0"
       position="601.08562,757.13669"
       id="guide3813"
       inkscape:locked="false" />
    <sodipodi:guide
       orientation="1,0"
       position="700.78492,788.92487"
       id="guide3815"
       inkscape:locked="false" />
    <sodipodi:guide
       orientation="1,0"
       position="801.92913,723.90359"
       id="guide3817"
       inkscape:locked="false" />
    <sodipodi:guide
       orientation="1,0"
       position="900.18351,833.71731"
       id="guide3819"
       inkscape:locked="false" />
    <sodipodi:guide
       orientation="0,1"
       position="677.66624,200.84351"
       id="guide3821"
       inkscape:locked="false" />
    <sodipodi:guide
       orientation="0,1"
       position="705.11967,300.54281"
       id="guide3823"
       inkscape:locked="false" />
    <sodipodi:guide
       orientation="0,1"
       position="787.47996,400.24211"
       id="guide3825"
       inkscape:locked="false" />
    <sodipodi:guide
       orientation="0,1"
       position="817.82322,498.49649"
       id="guide3827"
       inkscape:locked="false" />
    <sodipodi:guide
       orientation="0,1"
       position="786.03504,599.6407"
       id="guide3829"
       inkscape:locked="false" />
    <sodipodi:guide
       orientation="0,1"
       position="862.61566,700.78492"
       id="guide3831"
       inkscape:locked="false" />
    <sodipodi:guide
       orientation="1,0"
       position="1.4449174,275.97921"
       id="guide3833"
       inkscape:locked="false" />
    <sodipodi:guide
       orientation="1,0"
       position="991.2133,273.08938"
       id="guide3835"
       inkscape:locked="false" />
    <sodipodi:guide
       orientation="0,1"
       position="673.33149,774.4757"
       id="guide3837"
       inkscape:locked="false" />
    <sodipodi:guide
       orientation="0,1"
       position="349.67,99.699297"
       id="guide3839"
       inkscape:locked="false" />
    <sodipodi:guide
       orientation="-0.70710678,0.70710678"
       position="1440.6123,461.81331"
       id="guide6073"
       inkscape:locked="false" />
  </sodipodi:namedview>
  <metadata
     id="metadata7">
    <rdf:RDF>
      <cc:Work
         rdf:about="">
        <dc:format>image/svg+xml</dc:format>
        <dc:type
           rdf:resource="http://purl.org/dc/dcmitype/StillImage" />
      </cc:Work>
    </rdf:RDF>
  </metadata>
  <g
     inkscape:label="Layer 1"
     inkscape:groupmode="layer"
     id="layer1"
     transform="translate(9.9915476,-36.75027)">
    <circle
       style="fill:#006494;fill-opacity:1;stroke:none;stroke-width:0.610104;stroke-linejoin:round"
       id="path960"
       cx="327.50845"
       cy="374.25027"
       r="337.19495" />
    <path
       style="fill:#ffffff;fill-opacity:1;stroke:none;stroke-width:1px;stroke-linecap:butt;stroke-linejoin:miter;stroke-opacity:1"
       d="m 72.125413,284.60645 0.882523,-0.0499 0.45523,-0.58893 0.522329,-1.63209 1.403606,-1.227 0.823155,-0.73411 0.06984,-1.27364 0.666756,-0.44276 0.393618,-0.52732 1.005497,-0.90298 -0.22325,-0.76054 0.128712,-2.59369 0.72313,-1.63758 0.04116,-1.34748 0.705918,-0.33026 0.545528,-4.25248 -1.702935,-1.93267 -0.55775,-0.52906 1.558259,-1.06062 1.310813,1.26741 1.366189,-1.13596 1.506125,-0.88951 0.172115,-1.83414 0.190822,-1.89575 0.586436,-0.57346 0.853089,-0.0639 0.530062,0.46895 h 0.519836 l 0.601901,-0.43777 0.101273,-0.48841 -1.300835,-1.26491 -0.605144,-0.446 0.06386,-1.76206 0.855833,-1.81767 0.998513,-0.62161 1.290359,-0.36518 0.927921,0.17411 1.153416,1.87056 0.345725,0.31629 h 0.46845 l 0.750569,-0.58195 0.722132,-0.55101 0.737597,-0.0639 c 0,0 0.597911,0.0773 0.985792,-0.0651 0.387881,-0.14244 2.025214,-1.02147 2.025214,-1.02147 l 2.06462,-1.23772 1.976318,-1.24471 1.04691,-1.45849 0.80993,-1.29534 0.98529,-1.52534 1.79972,-1.32603 2.48294,-0.46895 1.78475,0.011 1.6069,-1.14543 2.37593,-1.14419 1.41408,-1.02545 0.4919,-1.74185 1.27514,0.12896 1.35671,-0.55775 3.28738,-2.16814 2.5448,-1.9439 1.94066,-1.39013 3.10404,-1.68747 1.03518,-0.66751 1.7653,-1.52982 1.72089,-0.86356 1.17637,-0.29958 h 2.11875 l 2.44003,-0.21103 2.1225,-0.52083 1.35247,-0.6912 1.53605,-0.93192 1.51735,-1.25967 2.64807,-0.0646 1.06237,0.56623 2.09007,-0.91669 2.86184,-0.18983 2.62262,-0.31005 1.02595,-0.77901 1.97333,-0.83987 h 3.12749 l 2.60267,-0.36119 2.00152,-0.48691 2.47869,-0.81642 3.20657,-1.55975 1.59568,-0.48342 2.41059,-0.21177 2.57374,0.24894 2.24522,0.36368 c 0,0 1.51535,-0.37117 1.81917,-0.45149 0.30382,-0.0803 1.72888,-0.50037 1.72888,-0.50037 l 2.51536,0.29034 1.6735,0.51735 1.81269,-0.2008 0.96359,-0.98904 1.14718,-0.67648 2.64483,-0.74932 3.04991,-0.77951 5.05044,-1.2043 2.51661,0.0781 2.46473,0.18259 3.10429,-0.0409 0.47045,0.13046 c 0,0 0.50113,0.0237 1.31331,-0.12872 0.81218,-0.1524 2.50987,-0.36243 2.50987,-0.36243 l 2.82218,-1.0287 2.9,0.70093 1.10403,-0.34198 1.97582,-1.1604 1.10977,-0.44975 1.32353,0.2699 c 0,0 0.85309,0.19257 1.32777,0.19257 0.47469,0 1.82492,-0.0833 1.82492,-0.0833 l 0.44724,-1.03118 h 0.41607 l 0.92418,0.25542 2.10005,0.6493 1.18759,0.4228 1.41258,0.56548 v 0 l 2.11925,0.1816 1.4969,0.93266 1.44302,0.53355 1.49365,0.75132 1.37816,0.33325 1.74509,-0.12771 2.00376,-0.35246 -1.50837,-2.92295 1.19507,-1.81593 3.66779,-1.68099 1.44925,0.53929 3.08259,0.40135 0.4687,1.26567 c 0,0 1.32703,1.39238 1.64482,1.31405 0.31779,-0.0783 1.98231,-1.35945 1.98231,-1.35945 l 0.91345,1.58046 1.81369,0.73834 1.30782,0.34798 1.30657,-1.96186 1.05064,-0.84461 1.35148,-0.58444 1.86557,1.24471 0.90472,1.40486 -1.55103,1.84935 1.96859,-0.20903 0.114,1.50438 0.62659,1.27015 -0.332,1.4298 0.25642,1.31181 1.08757,1.00101 3.31756,0.85234 c 0,0 2.19309,1.52384 2.6139,1.36494 0.42081,-0.15889 2.32928,-1.17287 2.32928,-1.17287 l 1.79473,-0.64081 h 1.25444 l 0.27089,-1.06412 -0.50961,-1.26142 0.38265,-0.66501 1.02345,-0.80296 c 0,0 2.11302,-0.22474 2.40012,-0.0796 0.28711,0.14518 2.7491,1.05115 2.7491,1.05115 l 0.83612,2.7885 -0.15041,1.676 1.42231,1.38589 0.76205,1.92993 2.25918,1.69919 -0.92492,1.85584 -0.12772,1.2053 1.66178,1.59418 1.88852,0.16962 1.47245,-0.97382 0.37142,-1.97607 0.65478,-0.77102 h 2.83166 l 2.6306,0.36044 1.85135,0.43028 1.34649,-0.12771 1.44052,-0.64406 0.94613,-0.91794 0.96434,-0.54827 1.57871,-0.16887 1.31156,0.40234 h 0.40335 l 0.7134,-0.51559 -0.83787,-1.67749 -1.58296,-2.98806 c 0,0 0.22301,-1.93766 0.40884,-2.24771 0.18583,-0.31006 0.99477,-2.61639 0.99477,-2.61639 l 1.49939,-2.50913 1.93018,-1.68747 2.87855,0.36668 3.64708,2.0115 1.84262,2.28113 1.76579,-0.12771 2.08608,-1.53306 1.48891,1.14917 2.09181,2.42631 0.77302,2.682 2.1225,0.82265 c 0,0 1.74209,0.25842 2.06238,0.25842 0.32028,0 0.87678,-1.13595 0.87678,-1.13595 l 0.49215,-2.30883 -1.14893,-1.50912 -1.35147,-2.60741 0.84361,-1.1145 c 0,0 0.31255,-0.0861 0.89325,-0.29334 0.5807,-0.20729 2.46323,-0.71515 2.46323,-0.71515 l 1.78101,2.23425 -0.76528,1.61288 1.93566,-0.18733 1.16713,3.00701 c 0,0 -0.16762,1.33027 0.43678,1.68074 0.60439,0.35046 1.56549,1.36893 1.56549,1.36893 l 1.38465,-1.27439 0.92717,-2.36745 1.16663,0.98704 0.51111,1.69695 0.80195,-0.36843 0.73211,-1.33077 1.50613,-0.30307 0.82989,1.94365 1.0025,2.25445 0.29334,1.45873 2.35598,0.60889 1.82017,-0.59841 2.9212,-0.51784 1.98755,-1.04117 1.25369,-1.39513 1.64457,-1.2487 3.43056,0.34099 2.92919,3.05889 0.98828,1.90524 3.12899,2.62985 2.26942,1.11975 8.814,0.93465 4.57425,-0.67124 4.8202,1.93341 4.41112,2.74261 6.2475,-0.0968 3.4605,0.24844 c 0,0 1.64681,2.98855 2.00551,3.56825 0.35869,0.57971 3.2133,2.88155 3.2133,2.88155 l 1.21328,1.57372 3.52161,-1.85908 1.12548,1.84112 1.89176,0.18683 0.59242,-2.44976 1.35147,-3.23675 3.12301,2.73937 1.39412,3.40661 1.99254,4.68152 2.46797,-2.37618 c 0,0 1.24371,-2.57698 1.59592,-3.04692 0.35221,-0.46995 1.85435,-3.81221 1.85435,-3.81221 0,0 2.3445,-0.43004 2.64707,0.0102 0.30257,0.44027 1.42256,1.84587 1.42256,1.84587 l 5.62939,0.9611 0.3789,3.14395 2.18086,5.98534 4.92646,-3.27267 3.60568,2.20856 7.72344,-3.48769 3.96088,-0.54179 1.79597,-0.1327 2.51337,-1.62636 3.85462,-1.95038 7.50094,0.59367 7.13327,-0.21027 2.68548,3.28638 4.06988,4.61416 2.90325,1.31231 3.8147,0.99627 2.95713,1.0499 3.0352,3.15418 c 0,0 2.44726,3.29437 2.54604,3.57674 0.0988,0.28237 2.89352,2.90125 3.2375,3.24199 0.34398,0.34073 3.14819,1.99478 3.14819,1.99478 l 2.2779,-0.32752 c 0,0 1.57921,1.81244 1.76604,2.16989 0.18684,0.35745 4.18737,3.83191 4.63761,4.1714 0.45024,0.33949 3.55828,3.17713 3.55828,3.17713 l 2.33826,2.03594 c 0,0 0.19482,2.78077 1.26068,3.21979 1.06586,0.43901 4.89279,1.48268 4.89279,1.48268 l 5.66081,2.32803 3.10031,3.33877 c 0,0 1.21278,4.19186 1.94264,4.50141 0.72987,0.30956 3.53608,1.19208 3.53608,1.19208 l 2.82841,2.7461 1.15093,2.95513 -0.74883,4.0397 c 0,0 -0.6902,3.1906 -0.83912,3.48195 -0.14891,0.29135 -0.42305,3.27167 -0.18159,4.3959 0.24146,1.12423 2.1427,8.36152 2.1427,8.36152 0,0 2.63285,6.10133 3.18337,7.14948 0.55051,1.04815 5.50441,6.86362 5.50441,6.86362 l 3.16417,3.78327 4.88405,3.44254 7.02302,2.80247 2.73088,0.82615 1.90498,2.06612 -4.46699,2.91347 -5.18962,2.20357 -1.17088,1.97407 -0.8259,4.42758 -2.39763,1.3415 c 0,0 -5.09608,0.0853 -5.62115,0.21302 -0.52508,0.12771 -6.43484,-0.92268 -6.43484,-0.92268 l -2.91771,1.41832 -1.09455,13.43465 -0.16637,7.53088 0.8259,4.77704 c 0,0 2.38964,1.21603 2.88528,1.09031 0.49564,-0.12572 1.50613,-1.75881 2.19733,-0.92967 0.6912,0.82915 2.29286,2.77179 2.79124,3.74237 0.49839,0.97057 3.71443,2.29037 3.71443,2.29037 l 2.70469,0.0781 c 0,0 1.69969,-6.86287 1.95861,-7.00605 0.25892,-0.14318 1.36644,-0.25792 1.36644,-0.69918 0,-0.44126 -0.24595,-8.6137 -0.24595,-8.6137 l 1.92569,-2.7905 3.21155,7.08313 1.48243,10.61621 c 0,0 -5.63537,5.61268 -5.78055,6.54808 -0.14517,0.93541 0.24022,3.46224 0.59567,3.74985 0.35545,0.28761 6.75362,3.82518 6.75362,3.82518 l 2.2764,6.09235 2.2547,3.57175 -2.46598,3.94142 c 0,0 0.48292,3.24597 0.96185,3.92845 0.47892,0.68247 2.64881,2.98032 2.64881,2.98032 l -3.07411,9.00782 c 0,0 -1.87705,4.43032 -2.48743,5.0629 -0.61038,0.63259 -3.28065,5.14822 -4.11677,5.6935 -0.83613,0.54527 -6.77358,3.75608 -7.06318,3.94865 -0.2896,0.19257 -4.91948,1.26691 -4.91948,1.26691 0,0 2.22103,5.022 2.79973,5.87309 0.5787,0.8511 1.78001,3.69622 0.54004,5.75985 -1.23997,2.06362 -4.28116,6.25698 -5.53784,6.5381 -1.25669,0.28112 -4.19311,-0.32627 -4.5987,-0.32627 -0.40559,0 -4.89054,-0.70342 -4.89054,-0.70342 0,0 -2.93717,1.84811 -4.17041,2.86483 -1.23324,1.01672 -4.69972,0.89574 -4.69972,0.89574 0,0 -4.38068,5.85513 -4.75884,5.9347 -0.37815,0.0796 -5.26794,2.28488 -5.26794,2.28488 l -0.56649,3.6169 0.60016,5.64785 1.0933,9.75963 -3.38417,2.75258 3.238,6.79029 -3.3026,0.8269 c 0,0 1.34848,3.86085 1.03618,3.96711 -0.3123,0.10626 -1.11027,0.43403 -1.11027,0.43403 l 4.46974,8.19464 0.0544,3.25894 -5.17366,-2.93193 -3.3273,0.73261 -0.0172,2.92096 -0.76628,5.31534 2.49416,2.18261 -1.43129,4.31234 -3.55204,-1.39139 -6.93996,1.12997 -5.38368,1.46871 c 0,0 -3.35898,-1.57696 -3.58896,-2.03843 -0.22999,-0.46147 -2.79474,-3.04618 -2.79474,-3.04618 l -2.46548,-0.18658 c 0,0 -0.73086,-0.97282 -1.93516,-2.05814 -1.2043,-1.08531 -4.94168,-5.66755 -4.94168,-5.66755 l -2.90125,3.98632 -4.47123,3.05166 -12.10214,2.344 -3.5483,-1.87679 -6.72468,-3.33154 -10.63417,0.48566 -11.82401,3.68874 -15.41771,0.0659 -10.29419,-1.6301 -4.84464,-3.10978 -6.99583,-2.48344 c 0,0 -3.6149,0.87829 -4.23251,0.23124 -0.61762,-0.64705 -4.82095,-5.67329 -4.82095,-5.67329 0,0 -3.5957,-2.22402 -4.2844,-2.51412 -0.68871,-0.2901 -2.6593,-1.30558 -3.88231,-2.0514 -1.22301,-0.74583 -4.92895,-2.48269 -4.92895,-2.48269 l -10.3795,-1.51935 -6.10482,3.27916 -5.24624,2.4081 -3.13299,-2.89501 -5.76209,-2.12424 c 0,0 -5.19386,1.98056 -5.48745,2.51661 -0.29359,0.53605 -2.76431,4.26594 -2.76431,4.26594 l -10.71948,-2.65056 c 0,0 -9.81002,-4.0639 -10.18144,-4.0639 -0.37142,0 -3.51338,0.3582 -3.51338,0.3582 l -3.92845,4.88605 -6.01203,3.16416 c 0,0 -5.01501,-1.27564 -4.95115,-1.77652 0.0639,-0.50087 0.64206,-3.04592 0.64206,-3.04592 l -4.88481,-1.05214 -2.45649,2.52983 c 0,0 0.28336,3.01948 1.66851,4.47447 1.38514,1.45499 6.45529,11.64516 6.45529,11.64516 l -3.75784,6.38046 -11.41043,3.63086 -11.0011,-4.06489 c 0,0 -2.73138,-4.1502 -3.31981,-5.2243 -0.58844,-1.07409 -2.71367,-5.64435 -1.56475,-6.57302 1.14893,-0.92867 3.13423,-3.46374 4.29912,-3.9055 1.16489,-0.44176 3.79674,-2.43729 3.79674,-2.43729 l 0.78849,-5.29464 -1.15093,-4.44753 -2.99953,-1.8087 c 0,0 -7.48248,0.96634 -8.91327,1.11426 -1.4308,0.14791 -15.39476,-0.19257 -15.39476,-0.19257 l -10.63617,0.55001 -8.37449,1.39787 -8.10833,-3.7945 -3.3505,2.72789 -4.2183,1.1599 -4.71418,-1.91895 c 0,0 -2.64682,3.75359 -3.08035,4.00004 -0.43353,0.24645 -3.46723,1.88154 -3.68475,1.56649 -0.21751,-0.31504 -4.24948,-4.32356 -4.24948,-4.32356 l -17.64297,-5.73241 -6.42959,-3.61964 c 0,0 -3.95065,-2.3415 -4.5982,-3.56252 -0.64755,-1.22101 1.78101,-3.01499 -2.52534,-4.13872 -4.30635,-1.12374 -10.32936,-6.85864 -10.32936,-6.85864 l -16.53745,-8.61894 -9.22657,-5.03571 -6.19961,-4.41786 c 0,0 -3.60193,-0.52033 -4.87508,-0.66326 -1.27315,-0.14293 -3.05765,-0.48716 -3.29362,-0.89973 -0.23597,-0.41258 0.48666,-2.30709 -0.0272,-2.81071 -0.51385,-0.50362 -3.26918,-3.65231 -3.26918,-3.65231 l -8.32584,-2.96486 -6.87959,-3.02273 c 0,0 -7.30488,-5.12951 -7.99309,-5.58648 -0.68821,-0.45698 -7.21134,-6.2707 -7.21134,-6.2707 0,0 -0.62835,-2.86109 -1.13496,-3.2395 -0.50662,-0.3784 -2.557018,-1.57871 -3.161918,-2.16115 -0.60489,-0.58245 -3.332528,-2.34974 -3.42108,-2.99504 -0.08855,-0.64531 -0.654034,-5.4221 -0.654034,-5.4221 l -4.802241,-4.90202 -4.747114,-3.80498 c 0,0 1.680984,-4.32905 0.762043,-4.85038 -0.918942,-0.52133 -5.080867,-5.6673 -5.080867,-5.6673 l -6.691009,-9.11857 -2.415588,-4.46425 1.358457,-4.04993 -1.591684,-6.9821 -3.887041,-8.16446 0.123473,-1.50039 -0.01247,-9.24404 c 0,0 -0.809935,-3.22876 -1.30757,-3.54081 -0.497635,-0.31206 -3.585716,-2.00526 -3.585716,-2.00526 l -0.223001,-3.58771 -2.513618,-5.57227 -0.05712,-3.81246 0.577706,-2.30708 -0.658525,-5.39666 -0.218012,-3.3894 -1.049398,-6.63314 0.384638,-4.65382 -0.39287,-4.35051 0.374162,-2.84862 c 0,0 1.713161,-5.1996 1.929676,-5.55605 0.216515,-0.35645 0.34847,-1.10053 1.84786,-2.21503 1.499391,-1.11451 4.763827,-6.08786 4.763827,-6.08786 l 1.817178,-4.8898 c 0,0 1.412087,-3.6159 1.513859,-4.00552 0.101772,-0.38963 -0.658525,-5.77482 -0.658525,-5.77482 0,0 -1.167883,-0.75381 -2.38765,-1.27539 -1.219767,-0.52158 -3.911237,-1.67973 -3.911237,-1.67973 l -1.945392,-5.17491 c 0,0 0.674489,-4.31409 1.071849,-4.51015 0.39736,-0.19606 4.823942,0.88552 5.140982,1.19632 0.317039,0.31081 3.696717,3.30485 3.696717,3.30485 z"
       id="path5558" />
  </g>
</svg>
