<?xml version="1.0" encoding="UTF-8" standalone="no"?>
<!-- Created with Inkscape (http://www.inkscape.org/) -->

<svg
   width="675"
   height="675"
   id="svg2"
   sodipodi:version="0.32"
   inkscape:version="1.1.1 (3bf5ae0d25, 2021-09-20)"
   version="1.0"
   sodipodi:docname="azores.svg"
   inkscape:output_extension="org.inkscape.output.svg.inkscape"
   inkscape:export-filename="/home/ginger/art/link/2030/map.png"
   inkscape:export-xdpi="200"
   inkscape:export-ydpi="200"
   xmlns:inkscape="http://www.inkscape.org/namespaces/inkscape"
   xmlns:sodipodi="http://sodipodi.sourceforge.net/DTD/sodipodi-0.dtd"
   xmlns="http://www.w3.org/2000/svg"
   xmlns:svg="http://www.w3.org/2000/svg"
   xmlns:rdf="http://www.w3.org/1999/02/22-rdf-syntax-ns#"
   xmlns:cc="http://creativecommons.org/ns#"
   xmlns:dc="http://purl.org/dc/elements/1.1/">
  <defs
     id="defs4">
    <marker
       inkscape:stockid="Arrow1Lend"
       orient="auto"
       refY="0"
       refX="0"
       id="Arrow1Lend"
       style="overflow:visible">
      <path
         id="path4067"
         d="M 0,0 5,-5 -12.5,0 5,5 Z"
         style="fill-rule:evenodd;stroke:#000000;stroke-width:1pt;marker-start:none"
         transform="matrix(-0.8,0,0,-0.8,-10,0)" />
    </marker>
    <inkscape:perspective
       sodipodi:type="inkscape:persp3d"
       inkscape:vp_x="0 : 525.40466 : 1"
       inkscape:vp_y="0 : 1000 : 0"
       inkscape:vp_z="744.09448 : 525.40466 : 1"
       inkscape:persp3d-origin="372.04724 : 350.01096 : 1"
       id="perspective10" />
    <inkscape:perspective
       id="perspective2464"
       inkscape:persp3d-origin="372.04724 : 350.01096 : 1"
       inkscape:vp_z="744.09448 : 525.40466 : 1"
       inkscape:vp_y="0 : 1000 : 0"
       inkscape:vp_x="0 : 525.40466 : 1"
       sodipodi:type="inkscape:persp3d" />
    <clipPath
       id="clipPath2594"
       clipPathUnits="userSpaceOnUse">
      <path
         id="path2596"
         d="M 257.582,758.02 H 2310.24 V 2810.68 H 257.582 Z" />
    </clipPath>
    <clipPath
       id="clipPath2582"
       clipPathUnits="userSpaceOnUse">
      <path
         id="path2584"
         d="M 225,317.922 H 2325 V 3075 H 225 Z" />
    </clipPath>
    <clipPath
       id="clipPath2568"
       clipPathUnits="userSpaceOnUse">
      <path
         id="path2570"
         d="m 1605.66,2892.74 h 592.39 v 173.1 h -592.39 z" />
    </clipPath>
    <clipPath
       id="clipPath2548"
       clipPathUnits="userSpaceOnUse">
      <path
         id="path2550"
         d="M 225,317.922 H 2325 V 3075 H 225 Z" />
    </clipPath>
    <clipPath
       id="clipPath2534"
       clipPathUnits="userSpaceOnUse">
      <path
         id="path2536"
         d="M 257.992,2897.84 H 716.18 v 168 H 257.992 Z" />
    </clipPath>
    <clipPath
       id="clipPath2524"
       clipPathUnits="userSpaceOnUse">
      <path
         id="path2526"
         d="M 225,317.922 H 2325 V 3075 H 225 Z" />
    </clipPath>
    <inkscape:perspective
       id="perspective2514"
       inkscape:persp3d-origin="372.04724 : 350.01096 : 1"
       inkscape:vp_z="744.09448 : 525.40466 : 1"
       inkscape:vp_y="0 : 1000 : 0"
       inkscape:vp_x="0 : 525.40466 : 1"
       sodipodi:type="inkscape:persp3d" />
    <clipPath
       id="clipPath3534"
       clipPathUnits="userSpaceOnUse">
      <path
         id="path3536"
         d="M 257.582,758.02 H 2310.24 V 2810.68 H 257.582 Z" />
    </clipPath>
    <clipPath
       id="clipPath3522"
       clipPathUnits="userSpaceOnUse">
      <path
         id="path3524"
         d="M 225,317.922 H 2325 V 3075 H 225 Z" />
    </clipPath>
    <clipPath
       id="clipPath3508"
       clipPathUnits="userSpaceOnUse">
      <path
         id="path3510"
         d="m 1605.66,2892.74 h 592.39 v 173.1 h -592.39 z" />
    </clipPath>
    <clipPath
       id="clipPath3488"
       clipPathUnits="userSpaceOnUse">
      <path
         id="path3490"
         d="M 225,317.922 H 2325 V 3075 H 225 Z" />
    </clipPath>
    <clipPath
       id="clipPath3474"
       clipPathUnits="userSpaceOnUse">
      <path
         id="path3476"
         d="M 257.992,2897.84 H 716.18 v 168 H 257.992 Z" />
    </clipPath>
    <clipPath
       id="clipPath3464"
       clipPathUnits="userSpaceOnUse">
      <path
         id="path3466"
         d="M 225,317.922 H 2325 V 3075 H 225 Z" />
    </clipPath>
    <inkscape:perspective
       id="perspective3454"
       inkscape:persp3d-origin="372.04724 : 350.01096 : 1"
       inkscape:vp_z="744.09448 : 525.40466 : 1"
       inkscape:vp_y="0 : 1000 : 0"
       inkscape:vp_x="0 : 525.40466 : 1"
       sodipodi:type="inkscape:persp3d" />
    <clipPath
       id="clipPath3958"
       clipPathUnits="userSpaceOnUse">
      <path
         id="path3960"
         d="M 257.582,758.02 H 2310.24 V 2810.68 H 257.582 Z" />
    </clipPath>
    <clipPath
       id="clipPath3946"
       clipPathUnits="userSpaceOnUse">
      <path
         id="path3948"
         d="M 225,317.922 H 2325 V 3075 H 225 Z" />
    </clipPath>
    <clipPath
       id="clipPath3932"
       clipPathUnits="userSpaceOnUse">
      <path
         id="path3934"
         d="m 1605.66,2892.74 h 592.39 v 173.1 h -592.39 z" />
    </clipPath>
    <clipPath
       id="clipPath3912"
       clipPathUnits="userSpaceOnUse">
      <path
         id="path3914"
         d="M 225,317.922 H 2325 V 3075 H 225 Z" />
    </clipPath>
    <clipPath
       id="clipPath3898"
       clipPathUnits="userSpaceOnUse">
      <path
         id="path3900"
         d="M 257.992,2897.84 H 716.18 v 168 H 257.992 Z" />
    </clipPath>
    <clipPath
       id="clipPath3888"
       clipPathUnits="userSpaceOnUse">
      <path
         id="path3890"
         d="M 225,317.922 H 2325 V 3075 H 225 Z" />
    </clipPath>
    <inkscape:perspective
       id="perspective3878"
       inkscape:persp3d-origin="372.04724 : 350.01096 : 1"
       inkscape:vp_z="744.09448 : 525.40466 : 1"
       inkscape:vp_y="0 : 1000 : 0"
       inkscape:vp_x="0 : 525.40466 : 1"
       sodipodi:type="inkscape:persp3d" />
    <inkscape:perspective
       id="perspective4930"
       inkscape:persp3d-origin="372.04724 : 350.01096 : 1"
       inkscape:vp_z="744.09448 : 525.40466 : 1"
       inkscape:vp_y="0 : 1000 : 0"
       inkscape:vp_x="0 : 525.40466 : 1"
       sodipodi:type="inkscape:persp3d" />
    <inkscape:perspective
       id="perspective6046"
       inkscape:persp3d-origin="372.04724 : 350.01096 : 1"
       inkscape:vp_z="744.09448 : 525.40466 : 1"
       inkscape:vp_y="0 : 1000 : 0"
       inkscape:vp_x="0 : 525.40466 : 1"
       sodipodi:type="inkscape:persp3d" />
  </defs>
  <sodipodi:namedview
     id="base"
     pagecolor="#ffffff"
     bordercolor="#666666"
     borderopacity="1.0"
     gridtolerance="10000"
     guidetolerance="10"
     objecttolerance="10"
     inkscape:pageopacity="0.0"
     inkscape:pageshadow="2"
     inkscape:zoom="0.48937524"
     inkscape:cx="390.29355"
     inkscape:cy="480.20411"
     inkscape:document-units="px"
     inkscape:current-layer="layer1"
     showgrid="false"
     showguides="true"
     inkscape:guide-bbox="true"
     units="in"
     inkscape:window-width="1920"
     inkscape:window-height="1011"
     inkscape:window-x="0"
     inkscape:window-y="0"
     inkscape:pagecheckerboard="0"
     inkscape:window-maximized="1"
     inkscape:lockguides="false"
     inkscape:snap-grids="false"
     inkscape:snap-to-guides="false">
    <sodipodi:guide
       position="0,284.87231"
       orientation="1,0"
       id="guide1175" />
    <sodipodi:guide
       position="675.26181,208.73758"
       orientation="1,0"
       id="guide1177" />
    <sodipodi:guide
       position="453.70405,675"
       orientation="0,-1"
       id="guide1179" />
    <sodipodi:guide
       position="762.91637,1.6685082"
       orientation="0,-1"
       id="guide1181" />
  </sodipodi:namedview>
  <metadata
     id="metadata7">
    <rdf:RDF>
      <cc:Work
         rdf:about="">
        <dc:format>image/svg+xml</dc:format>
        <dc:type
           rdf:resource="http://purl.org/dc/dcmitype/StillImage" />
      </cc:Work>
    </rdf:RDF>
  </metadata>
  <g
     inkscape:label="Layer 1"
     inkscape:groupmode="layer"
     id="layer1"
     transform="translate(9.9915476,-36.75027)">
    <circle
       style="fill:#006494;fill-opacity:1;stroke:none;stroke-width:0.610104;stroke-linejoin:round"
       id="path960"
       cx="327.50845"
       cy="374.25027"
       r="337.19495" />
    <path
       style="fill:#ffffff;fill-opacity:1;stroke:none;stroke-width:0.878858px;stroke-linecap:butt;stroke-linejoin:miter;stroke-opacity:1"
       d="m 75.339956,325.3646 4.949299,-9.50361 0.465042,-8.29576 1.025575,-5.849 2.099516,-0.35777 -0.145094,-2.7326 -2.831182,-3.36505 1.272978,-3.12322 2.743134,-3.17408 v -2.92419 l 1.346764,-2.3494 4.699415,-2.7884 5.460846,2.77228 3.250342,-2.81072 5.535249,-0.83025 4.60889,0.77816 1.01814,-5.07951 3.97642,-4.92697 1.78639,0.79367 2.05673,-2.4486 -2.74065,-5.10804 0.31995,-3.21686 3.67012,-1.64377 5.03858,1.7529 c 0,0 2.22972,0.8284 2.99302,0.8284 0.76329,0 1.0324,-2.96512 1.27608,-3.87908 0.24368,-0.91396 1.87009,-4.00185 1.87009,-4.00185 l 6.71956,-2.81382 6.04556,2.34381 4.75832,3.69741 7.38923,-0.12649 3.77305,-3.95535 1.35173,-3.56595 c 0,0 2.98619,-2.75677 4.71119,-2.93287 1.725,-0.1761 4.52207,-0.50225 5.41992,-0.50225 0.89785,0 3.50581,-0.32243 4.39249,-0.48116 0.88668,-0.15874 3.98263,-2.55216 3.98263,-2.55216 l 1.95256,-2.36427 3.00789,-1.02373 -1.07394,-4.26165 1.8608,-3.25778 h 4.05331 l 1.57185,2.38412 -1.27794,4.11408 -1.16819,2.83986 0.94559,1.32507 -2.29173,3.6726 0.16183,2.98434 3.18586,3.28258 6.46658,2.12741 2.91613,2.14292 0.13083,1.45156 4.76266,0.87924 c 0,0 2.99178,0.20524 4.04278,0.35777 1.051,0.15254 4.68205,4.04464 4.68205,4.04464 l 2.13424,2.41822 4.21205,0.97101 c 0,0 2.16834,-3.94418 3.11393,-4.4024 0.94558,-0.45822 5.07641,-6.48456 5.07641,-6.48456 0,0 -0.20587,-1.57619 0.49233,-2.46784 0.69818,-0.89163 4.01053,-6.53044 4.01053,-6.53044 l 5.16817,-3.073 0.72671,3.99379 c 0,0 1.39575,1.56626 2.15594,1.56626 0.76019,0 3.93674,-2.8535 3.93674,-2.8535 l 5.01255,1.20291 1.52968,1.86575 4.36211,5.69088 2.4362,3.05565 2.39777,2.89257 2.31405,0.90962 c 0,0 2.46349,-1.65865 3.6664,-1.81738 1.20291,-0.15874 5.30335,-0.29391 5.30335,-0.29391 l 1.17005,-3.28259 2.24275,-2.40519 3.78668,1.30397 2.21423,0.13207 0.94373,-2.13919 c 0,0 1.85955,-2.35622 2.75429,-2.35622 0.89475,0 1.28786,0 1.28786,0 l 0.42722,-1.99969 -1.3294,-4.5444 0.63494,-4.50224 -0.70377,-6.38349 1.70702,-0.13579 1.54394,-0.75399 1.19238,-2.95892 1.86575,-2.4114 3.59386,-0.15873 2.59617,1.39823 4.82963,5.17128 4.47496,2.10261 3.86295,0.4235 -1.80871,-3.89458 c 0,0 1.30584,-1.60595 2.13425,-1.8949 0.82839,-0.28894 5.14151,-1.23081 5.14151,-1.23081 l 3.84312,-2.50689 1.65989,-2.21422 3.4841,-0.93567 3.8518,1.59354 3.07177,2.56146 1.38272,-0.97597 1.91908,-5.61152 3.27018,-1.16074 1.61401,3.20941 c 0,0 2.97813,2.02449 3.61307,2.18632 0.63494,0.16184 -0.94806,-7.36504 -0.94806,-7.36504 l 3.7129,-4.97968 4.86311,1.00077 8.14507,6.04432 3.94171,5.07517 2.64393,2.03131 3.30614,6.32459 5.58734,-1.37467 6.84295,0.78871 4.82901,2.84358 5.48875,3.63727 c 0,0 1.22585,-1.53837 2.24585,-1.85584 1.01999,-0.31747 5.07703,1.18989 5.07703,1.18989 l 4.10044,-1.37715 5.37962,-1.9631 3.17841,0.35592 3.2336,-1.8329 -0.026,-2.73755 -2.67245,-5.19049 -0.78251,-3.02403 1.35172,-4.20647 1.56626,-1.83723 2.80329,-0.56053 4.6126,0.4762 3.04944,1.47574 0.1482,3.72903 1.67539,1.85273 2.61479,-1.06527 2.19004,-1.28227 3.00418,0.64672 2.14106,4.7112 4.08121,1.49558 2.1702,0.44395 2.42815,3.52627 0.78189,3.63416 1.53712,0.89413 1.09316,-2.41513 1.85026,-0.35157 1.05658,1.68035 1.7963,2.84359 -1.71135,2.40892 -0.35282,4.19221 0.4793,5.60594 0.65045,5.58113 c 0,0 0.69198,3.36877 -0.74283,4.38567 -1.43482,1.0169 -3.98449,2.51123 -3.98449,2.51123 0,0 -1.07952,3.11393 -0.28275,3.47853 0.79677,0.36459 3.02464,2.2539 3.02464,2.2539 l -0.78623,3.20756 1.41993,2.42504 2.949,0.51961 0.65974,2.45543 -0.0453,5.91907 -3.73523,5.67415 -5.62453,5.95316 -2.76422,4.6926 0.15873,5.07455 2.5565,7.84993 4.78499,11.46982 2.57447,2.01643 c 0,0 3.02898,-0.92451 4.14322,-1.08324 1.11424,-0.15874 2.97628,-1.94512 2.97628,-1.94512 l 3.01906,-2.05921 5.13718,4.29266 2.16709,2.64578 0.48614,3.54177 2.0065,0.92946 1.65245,2.58006 5.41558,0.57418 2.14478,3.90015 0.65354,1.80499 4.77755,-1.13656 3.62237,2.25391 -5.00511,4.54626 -0.82839,3.32971 1.07083,2.74003 2.81569,-1.45838 5.14028,0.8222 3.40349,5.1595 4.47992,4.22693 3.81831,4.61075 3.47914,2.71337 4.22879,2.4052 1.46582,-2.8225 3.40287,0.16308 -0.32614,2.1268 3.84435,2.19624 -0.36025,3.94852 -7.3855,0.46071 -3.28011,3.61369 3.53309,2.17764 1.97612,4.77445 c 0,0 -1.7622,3.02402 -1.7622,4.42782 0,1.40381 0,3.44814 0,3.44814 l 6.44549,-3.07424 1.09998,3.72406 3.58828,0.16556 2.11564,-1.37963 2.79459,-3.32909 5.39822,-2.32211 4.72174,4.80854 2.14912,4.70686 0.49977,7.33962 0.51278,4.84141 2.82002,3.75816 5.72003,-0.52704 3.97457,2.85351 -1.12788,3.07238 -3.99441,1.34491 1.52162,4.00866 -5.29591,3.02031 -5.6326,5.10059 -1.29344,5.83846 1.9662,1.63447 3.01596,-1.27546 3.11083,0.47869 -0.31747,2.95023 -1.83537,3.22492 0.39745,7.55106 0.51155,2.696 3.40473,5.80126 3.8425,1.2054 -0.64113,3.41155 1.48751,4.19159 2.35126,2.90001 4.20647,5.05595 -2.15346,11.18335 -6.96263,12.68761 -1.47263,1.04481 2.15346,1.97116 c 0,0 -1.224,3.53929 -2.00092,3.85676 -0.77694,0.31747 -3.5114,2.70469 -3.5114,2.70469 l 7.00417,4.43588 1.71261,3.45187 0.8966,4.66407 -7.41279,5.29219 -9.81923,0.49852 4.3032,-5.72188 c 0,0 -5.06773,-1.23578 -5.93147,-1.33809 -0.86374,-0.10231 -7.98138,-1.83103 -7.98138,-1.83103 l -5.50983,1.80809 -3.57029,-0.6802 -1.97179,-6.29979 -2.68794,-3.75879 -5.27731,1.67044 -2.45419,3.20818 v 6.08649 l -5.35729,0.48425 -3.83444,-4.27157 -0.6213,-1.68842 -4.7515,-0.005 -8.36457,7.47107 -12.29636,-1.28042 -15.93238,1.05658 -19.48283,-5.25003 -3.64593,-1.62517 -5.26181,1.43978 -2.24027,2.33575 -15.45865,7.29125 -10.22102,-4.2232 -6.02821,-4.44333 c 0,0 -2.88264,-4.92389 -3.68995,-5.97736 -0.80732,-1.05348 -1.43978,-2.57014 -2.50442,-3.08355 -1.06464,-0.5134 -8.28397,-3.11578 -8.28397,-3.11578 0,0 -1.94884,-3.64842 -2.58502,-4.64796 -0.63618,-0.99952 -4.72979,-9.55446 -4.72979,-9.55446 l -4.3032,-1.93334 -6.04184,-4.8197 -1.20353,-10.36489 -6.42442,-9.32318 -13.09437,-5.26118 -4.71306,-8.70314 -18.54219,-4.5196 c 0,0 -14.86217,-3.55664 -15.68684,-3.70856 -0.82468,-0.15191 -3.86977,0.36707 -3.86977,0.36707 l -8.08618,4.12897 -5.34738,-3.58641 -7.43386,-0.78127 -2.5565,4.06447 -9.22893,7.49836 -3.49279,4.83458 -8.85504,6.45418 -12.81721,-3.21376 -6.01766,3.11084 -8.9468,5.0051 -4.63493,0.8129 c 0,0 -4.97844,5.34985 -5.88249,5.70638 -0.90404,0.35653 -12.68824,8.53199 -12.68824,8.53199 l -7.9237,-5.11858 -8.34288,-14.75302 -3.90575,2.78282 c 0,0 -11.98198,1.06774 -9.95626,2.81196 2.02574,1.74422 7.76932,5.57679 7.76932,5.57679 l -4.49851,5.49867 -4.3497,-2.8504 -7.3576,0.44706 -7.06308,3.45062 -7.39047,1.49434 -5.23514,-4.1488 c 0,0 -10.99858,-7.77305 -11.68684,-9.05594 -0.68826,-1.2829 -3.03766,-3.54612 -3.03766,-3.54612 l -6.19065,0.15564 c 0,0 -2.7419,-2.77476 -2.96202,-3.90822 -0.22012,-1.13346 -3.14741,-8.23188 -3.14741,-8.23188 l -0.98838,-7.4655 -7.96277,-4.8135 0.11905,-4.23313 4.01364,-3.69244 -0.19595,-5.69585 c 0,0 -2.03751,-2.84483 -2.73197,-3.15051 -0.69446,-0.30569 -2.76918,-3.46241 -2.76918,-3.46241 l -0.17485,-6.79334 -3.09719,-11.48843 v -8.79892 l 0.85816,-5.94387 -0.4018,-7.63167 -5.66422,-9.80807 -11.040125,-13.87936 -3.059363,-12.29698 -7.699874,-13.10553 -3.597573,-7.04075 z"
       id="path1353" />
  </g>
</svg>
